<svg width="240" id="Ebene_1" data-name="Ebene 1" xmlns="http://www.w3.org/2000/svg" viewBox="0 0 169.92 34.92"><path d="M2.2,32.58V3.42H9.58a18.42,18.42,0,0,1,3.52.32A7.88,7.88,0,0,1,16,4.9a5.34,5.34,0,0,1,1.9,2.28,9.11,9.11,0,0,1,.67,3.8,8.14,8.14,0,0,1-.5,3,4.69,4.69,0,0,1-1.44,2,5.37,5.37,0,0,1-2.31,1,6,6,0,0,1,2.85,1.15,5.46,5.46,0,0,1,1.72,2.38A9.66,9.66,0,0,1,19.44,24a11.79,11.79,0,0,1-.56,3.82,6.56,6.56,0,0,1-1.64,2.66,6.79,6.79,0,0,1-2.66,1.57,11.7,11.7,0,0,1-3.67.52ZM8.14,15.19H9.61A4.85,4.85,0,0,0,12,14.74a2.33,2.33,0,0,0,1.1-1.37,7.27,7.27,0,0,0,.31-2.25A4.42,4.42,0,0,0,12.91,9a2.6,2.6,0,0,0-1.37-1.17,6.42,6.42,0,0,0-2.32-.36H8.14Zm0,13.21H9.79a3.66,3.66,0,0,0,3.08-1.11,5.55,5.55,0,0,0,.85-3.35,7.88,7.88,0,0,0-.4-2.75A2.81,2.81,0,0,0,12,19.67a4.94,4.94,0,0,0-2.36-.48H8.14Z" transform="translate(-2.2 -3.42)" style="fill:#575756"/><path d="M22.86,32.58V3.42H28.8V28.55h6.84v4Z" transform="translate(-2.2 -3.42)" style="fill:#575756"/><path d="M46.19,33A9.76,9.76,0,0,1,41,31.84a6,6,0,0,1-2.57-3.27,15.91,15.91,0,0,1-.74-5.21V3.42H43.6V24.19a13.7,13.7,0,0,0,.16,2.13A3.35,3.35,0,0,0,44.48,28a2.14,2.14,0,0,0,1.71.65A2.18,2.18,0,0,0,47.93,28a3.18,3.18,0,0,0,.71-1.69,16.69,16.69,0,0,0,.14-2.13V3.42h5.87V23.36a16.18,16.18,0,0,1-.74,5.21,6,6,0,0,1-2.57,3.27A9.78,9.78,0,0,1,46.19,33Z" transform="translate(-2.2 -3.42)" style="fill:#575756"/><path d="M58.79,32.58V3.42H71.5v4.1H64.73v7.74H70V19.4H64.73v9.15h6.84v4Z" transform="translate(-2.2 -3.42)" style="fill:#575756"/><path d="M74.56,32.58V3.42h9.25a8.24,8.24,0,0,1,4.28,1,6,6,0,0,1,2.47,2.86,11.41,11.41,0,0,1,.81,4.54,9.54,9.54,0,0,1-1.06,4.89,5.94,5.94,0,0,1-2.9,2.51,11.29,11.29,0,0,1-4.21.73H80.5V32.58ZM80.5,15.77h2.08a3.92,3.92,0,0,0,2-.42,2.09,2.09,0,0,0,1-1.31,9.11,9.11,0,0,0,.25-2.3,10.79,10.79,0,0,0-.2-2.24,2.3,2.3,0,0,0-.88-1.4,3.66,3.66,0,0,0-2.16-.5h-2Z" transform="translate(-2.2 -3.42)" style="fill:#575756"/><path d="M94.21,32.58V3.42h7.56a16.72,16.72,0,0,1,5.06.67,5.94,5.94,0,0,1,3.24,2.35,8.39,8.39,0,0,1,1.13,4.68,15.17,15.17,0,0,1-.3,3.19,6.32,6.32,0,0,1-1.08,2.41,5.35,5.35,0,0,1-2.18,1.64l4,14.22h-6.08l-3.35-13.21h-2.09V32.58Zm5.94-16.74h1.73a4.68,4.68,0,0,0,2.27-.47A2.55,2.55,0,0,0,105.32,14a7.27,7.27,0,0,0,.34-2.36,5.41,5.41,0,0,0-.74-3.08,3.15,3.15,0,0,0-2.75-1.06h-2Z" transform="translate(-2.2 -3.42)" style="fill:#575756"/><path d="M115.16,32.58V3.42h5.91V32.58Z" transform="translate(-2.2 -3.42)" style="fill:#575756"/><path d="M125.53,32.58V3.42h4.14l6.48,15.19V3.42h4.9V32.58h-4l-6.48-16.13V32.58Z" transform="translate(-2.2 -3.42)" style="fill:#575756"/><path d="M148.21,32.58V7.85h-4.5V3.42h14.9V7.85h-4.42V32.58Z" transform="translate(-2.2 -3.42)" style="fill:#575756"/><path d="M159.05,38.34V34.63h13.06v3.71Z" transform="translate(-2.2 -3.42)" style="fill:#ec6907"/></svg>